<svg width="24" height="24" viewBox="0 0 24 24" fill="none" xmlns="http://www.w3.org/2000/svg">
<g id="categories">
<path id="icon/image/crop_square_24px" fill-rule="evenodd" clip-rule="evenodd" d="M4 3H10C10.55 3 11 3.45 11 4V10C11 10.55 10.55 11 10 11H4C3.45 11 3 10.55 3 10V4C3 3.45 3.45 3 4 3ZM5 9H9V5H5V9Z" fill="#454545"/>
<path id="icon/image/crop_square_24px_2" fill-rule="evenodd" clip-rule="evenodd" d="M14 3H20C20.55 3 21 3.45 21 4V10C21 10.55 20.55 11 20 11H14C13.45 11 13 10.55 13 10V4C13 3.45 13.45 3 14 3ZM15 9H19V5H15V9Z" fill="#454545"/>
<path id="icon/image/crop_square_24px_3" fill-rule="evenodd" clip-rule="evenodd" d="M4 13H10C10.55 13 11 13.45 11 14V20C11 20.55 10.55 21 10 21H4C3.45 21 3 20.55 3 20V14C3 13.45 3.45 13 4 13ZM5 19H9V15H5V19Z" fill="#454545"/>
<path id="icon/image/crop_square_24px_4" fill-rule="evenodd" clip-rule="evenodd" d="M14 13H20C20.55 13 21 13.45 21 14V20C21 20.55 20.55 21 20 21H14C13.45 21 13 20.55 13 20V14C13 13.45 13.45 13 14 13ZM15 19H19V15H15V19Z" fill="#454545"/>
</g>
</svg>
