<svg width="14" height="13" viewBox="0 0 14 13" fill="none" xmlns="http://www.w3.org/2000/svg">
<path d="M8.33325 6.31356H9.94659C10.0343 6.31407 10.1213 6.29725 10.2025 6.26407C10.2837 6.2309 10.3576 6.18201 10.4199 6.12022L13.4733 3.06689C13.5357 3.00492 13.5853 2.93118 13.6192 2.84994C13.653 2.7687 13.6705 2.68157 13.6705 2.59356C13.6705 2.50555 13.653 2.41841 13.6192 2.33717C13.5853 2.25593 13.5357 2.1822 13.4733 2.12022L11.8599 0.506891C11.7979 0.444406 11.7242 0.394809 11.643 0.360964C11.5617 0.327118 11.4746 0.309692 11.3866 0.309692C11.2986 0.309692 11.2114 0.327118 11.1302 0.360964C11.049 0.394809 10.9752 0.444406 10.9133 0.506891L7.85992 3.56022C7.7381 3.68798 7.66904 3.85705 7.66659 4.03356V5.64689C7.66659 5.8237 7.73682 5.99327 7.86185 6.1183C7.98687 6.24332 8.15644 6.31356 8.33325 6.31356ZM8.99992 4.31356L11.3866 1.92689L12.0533 2.59356L9.66659 4.98022H8.99992V4.31356ZM12.9999 5.64689C12.8231 5.64689 12.6535 5.71713 12.5285 5.84215C12.4035 5.96718 12.3333 6.13675 12.3333 6.31356V10.9802C12.3333 11.157 12.263 11.3266 12.138 11.4516C12.013 11.5767 11.8434 11.6469 11.6666 11.6469H2.33325C2.15644 11.6469 1.98687 11.5767 1.86185 11.4516C1.73682 11.3266 1.66659 11.157 1.66659 10.9802V4.57356L5.58659 8.50023C5.77263 8.68869 5.99425 8.83833 6.23858 8.94046C6.48291 9.0426 6.7451 9.09519 7.00992 9.09519C7.27474 9.09519 7.53693 9.0426 7.78126 8.94046C8.02559 8.83833 8.24721 8.68869 8.43325 8.50023C8.5554 8.37561 8.62382 8.20806 8.62382 8.03356C8.62382 7.85906 8.5554 7.69151 8.43325 7.56689C8.37116 7.50339 8.29702 7.45294 8.21516 7.4185C8.13331 7.38405 8.04539 7.36631 7.95659 7.36631C7.86778 7.36631 7.77987 7.38405 7.69801 7.4185C7.61616 7.45294 7.54201 7.50339 7.47992 7.56689C7.3553 7.68904 7.18775 7.75746 7.01325 7.75746C6.83875 7.75746 6.6712 7.68904 6.54659 7.56689L2.60659 3.63356H5.66659C5.8434 3.63356 6.01297 3.56332 6.13799 3.4383C6.26301 3.31327 6.33325 3.1437 6.33325 2.96689C6.33325 2.79008 6.26301 2.62051 6.13799 2.49549C6.01297 2.37046 5.8434 2.30022 5.66659 2.30022H2.33325C1.80282 2.30022 1.29411 2.51094 0.919038 2.88601C0.543966 3.26108 0.333252 3.76979 0.333252 4.30022V10.9669C0.333252 11.4973 0.543966 12.006 0.919038 12.3811C1.29411 12.7562 1.80282 12.9669 2.33325 12.9669H11.6666C12.197 12.9669 12.7057 12.7562 13.0808 12.3811C13.4559 12.006 13.6666 11.4973 13.6666 10.9669V6.30022C13.6666 6.12341 13.5963 5.95384 13.4713 5.82882C13.3463 5.7038 13.1767 5.63356 12.9999 5.63356V5.64689Z" fill="black"/>
</svg>
