<svg width="18" height="22" viewBox="0 0 18 22" fill="none" xmlns="http://www.w3.org/2000/svg">
<path fill-rule="evenodd" clip-rule="evenodd" d="M9.00316 12.8397C11.3596 12.8397 13.2698 10.992 13.2698 8.71266C13.2698 6.43333 11.3596 4.58558 9.00316 4.58558C6.64677 4.58558 4.73654 6.43333 4.73654 8.71266C4.73654 10.992 6.64677 12.8397 9.00316 12.8397ZM9.00316 11.0088C7.69218 11.0088 6.62941 9.98077 6.62941 8.71266C6.62941 7.44455 7.69218 6.41654 9.00316 6.41654C10.3141 6.41654 11.3769 7.44455 11.3769 8.71266C11.3769 9.98077 10.3141 11.0088 9.00316 11.0088Z" fill="black"/>
<path fill-rule="evenodd" clip-rule="evenodd" d="M17.7909 10.6187C19.0167 5.30524 14.6935 0 8.99975 0C3.3076 0 -1.016 5.31252 0.208775 10.6194C1.15413 14.9295 4.977 19.1157 7.25859 21.2988C8.23574 22.2337 9.76377 22.2337 10.7409 21.2988C13.0226 19.1156 16.8458 14.9291 17.7909 10.6187ZM8.99975 1.83426C13.4678 1.83426 16.9042 6.04046 15.9401 10.2192C15.4771 12.2271 14.4382 14.0302 13.2191 15.6971C11.945 17.4391 10.5006 18.9487 9.40737 19.9947C9.16906 20.2227 8.83046 20.2227 8.59214 19.9947C7.49898 18.9488 6.05465 17.4392 4.78063 15.6973C3.56142 14.0304 2.52289 12.2277 2.05949 10.2197C1.09644 6.04689 4.53414 1.83426 8.99975 1.83426Z" fill="black"/>
</svg>
