<svg width="21" height="21" viewBox="0 0 21 21" fill="none" xmlns="http://www.w3.org/2000/svg">
<path fill-rule="evenodd" clip-rule="evenodd" d="M15.8142 20.9186C13.7752 20.4077 9.60098 18.9675 5.81674 15.1833C2.0325 11.399 0.592289 7.22477 0.0814185 5.18576C-0.212171 4.01397 0.316503 2.88323 1.21294 2.24292L3.563 0.564299C4.93804 -0.417873 6.85089 -0.0845902 7.81274 1.30474L9.29226 3.44184C9.9203 4.349 9.70367 5.59233 8.80584 6.23364L7.62611 7.0763C7.80466 7.75925 8.35997 9.16173 10.0991 10.9009C11.8383 12.64 13.2408 13.1953 13.9237 13.3739L14.7664 12.1942C15.4077 11.2963 16.651 11.0797 17.5582 11.7077L19.6953 13.1873C21.0846 14.1491 21.4179 16.062 20.4357 17.437L18.7571 19.7871C18.1168 20.6835 16.986 21.2122 15.8142 20.9186ZM7.2442 13.7558C10.6855 17.1971 14.4832 18.504 16.3049 18.9604C16.5711 19.0271 16.893 18.9236 17.1144 18.6137L18.793 16.2636C19.1204 15.8053 19.0093 15.1677 18.5462 14.847L16.4091 13.3675L15.5048 14.6335C15.1352 15.1509 14.4518 15.5567 13.656 15.385C12.6628 15.1707 10.8268 14.4834 8.67166 12.3283C6.51657 10.1732 5.82928 8.33721 5.61498 7.34399C5.44328 6.54821 5.84909 5.86477 6.36646 5.49521L7.63247 4.59092L6.15295 2.45383C5.83233 1.99072 5.19472 1.87962 4.73637 2.20701L2.3863 3.88563C2.07639 4.107 1.97292 4.42888 2.03963 4.69513C2.49604 6.51679 3.80288 10.3145 7.2442 13.7558Z" fill="#A29F9D"/>
</svg>
